<svg xmlns="http://www.w3.org/2000/svg" width="80" height="80" viewBox="0 0 80 80">
  <defs>
    <linearGradient id="body" x1=".15" y1="0" x2=".85" y2="1"><stop offset="0" stop-color="#23A08B"/><stop offset=".5" stop-color="#11685D"/><stop offset="1" stop-color="#0A3F39"/></linearGradient>
    <linearGradient id="sheen" x1="0" y1="0" x2="0" y2="1"><stop offset="0" stop-color="#FFFFFF" stop-opacity=".38"/><stop offset="1" stop-color="#FFFFFF" stop-opacity="0"/></linearGradient>
    <linearGradient id="beam" x1="0" y1="0" x2="1" y2="0"><stop offset="0" stop-color="#9FF3E3" stop-opacity="0"/><stop offset=".5" stop-color="#C8FFF4"/><stop offset="1" stop-color="#9FF3E3" stop-opacity="0"/></linearGradient>
  </defs>
  <rect x="2" y="4" width="76" height="74" rx="20" fill="#083530"/>
  <rect x="2" y="2" width="76" height="74" rx="20" fill="url(#body)"/>
  <rect x="5" y="5" width="70" height="34" rx="17" fill="url(#sheen)"/>
  <g fill="none" stroke="#FFFFFF" stroke-width="4.2" stroke-linecap="round" stroke-linejoin="round">
    <path d="M18 29v-6a5 5 0 0 1 5-5h6M51 18h6a5 5 0 0 1 5 5v6M62 49v6a5 5 0 0 1-5 5h-6M29 60h-6a5 5 0 0 1-5-5v-6"/>
    <path d="M30 32h20M30 48h11"/>
  </g>
  <rect x="24" y="38.2" width="32" height="3.6" rx="1.8" fill="url(#beam)"/>
</svg>
