<svg xmlns="http://www.w3.org/2000/svg" width="40" height="40" viewBox="0 0 40 40">
  <defs>
    <linearGradient id="tile" x1="0" y1="0" x2="1" y2="1"><stop offset="0" stop-color="#1C8F7C"/><stop offset="1" stop-color="#0B574D"/></linearGradient>
    <linearGradient id="sheen" x1="0" y1="0" x2="0" y2="1"><stop offset="0" stop-color="#FFFFFF" stop-opacity="0.3"/><stop offset="1" stop-color="#FFFFFF" stop-opacity="0"/></linearGradient>
  </defs>
  <rect x="0.75" y="0.75" width="38.5" height="38.5" rx="11" fill="url(#tile)" stroke="#0A4C44" stroke-width="1.5"/>
  <rect x="2" y="2" width="36" height="17" rx="10" fill="url(#sheen)"/>
  <g transform="translate(8 8)">
    <path d="M4.5 4h15A1.5 1.5 0 0 1 21 5.5v2A1.5 1.5 0 0 1 19.5 9h-15A1.5 1.5 0 0 1 3 7.5v-2A1.5 1.5 0 0 1 4.5 4z" fill="#FFFFFF" fill-opacity="0.3"/>
    <path d="M4.5 4h15A1.5 1.5 0 0 1 21 5.5v2A1.5 1.5 0 0 1 19.5 9h-15A1.5 1.5 0 0 1 3 7.5v-2A1.5 1.5 0 0 1 4.5 4z" fill="none" stroke="#FFFFFF" stroke-width="1.7" stroke-linecap="round" stroke-linejoin="round"/>
    <path d="M5 9v9a2 2 0 0 0 2 2h10a2 2 0 0 0 2-2V9" fill="none" stroke="#FFFFFF" stroke-width="1.7" stroke-linecap="round" stroke-linejoin="round"/>
    <path d="M10 13h4" fill="none" stroke="#FFFFFF" stroke-width="1.7" stroke-linecap="round" stroke-linejoin="round"/>
  </g>
</svg>
