<svg xmlns="http://www.w3.org/2000/svg" width="40" height="40" viewBox="0 0 40 40">
  <defs>
    <linearGradient id="tile" x1="0" y1="0" x2="1" y2="1"><stop offset="0" stop-color="#1C8F7C"/><stop offset="1" stop-color="#0B574D"/></linearGradient>
    <linearGradient id="sheen" x1="0" y1="0" x2="0" y2="1"><stop offset="0" stop-color="#FFFFFF" stop-opacity="0.3"/><stop offset="1" stop-color="#FFFFFF" stop-opacity="0"/></linearGradient>
  </defs>
  <rect x="0.75" y="0.75" width="38.5" height="38.5" rx="11" fill="url(#tile)" stroke="#0A4C44" stroke-width="1.5"/>
  <rect x="2" y="2" width="36" height="17" rx="10" fill="url(#sheen)"/>
  <g transform="translate(8 8)">
    <path d="M12 7c.5 2.6 2.4 4.5 5 5-2.6.5-4.5 2.4-5 5-.5-2.6-2.4-4.5-5-5 2.6-.5 4.5-2.4 5-5z" fill="#FFFFFF" fill-opacity="0.3"/>
    <path d="M4 8V6a2 2 0 0 1 2-2h2" fill="none" stroke="#FFFFFF" stroke-width="1.7" stroke-linecap="round" stroke-linejoin="round"/>
    <path d="M16 4h2a2 2 0 0 1 2 2v2" fill="none" stroke="#FFFFFF" stroke-width="1.7" stroke-linecap="round" stroke-linejoin="round"/>
    <path d="M20 16v2a2 2 0 0 1-2 2h-2" fill="none" stroke="#FFFFFF" stroke-width="1.7" stroke-linecap="round" stroke-linejoin="round"/>
    <path d="M8 20H6a2 2 0 0 1-2-2v-2" fill="none" stroke="#FFFFFF" stroke-width="1.7" stroke-linecap="round" stroke-linejoin="round"/>
    <path d="M12 7c.5 2.6 2.4 4.5 5 5-2.6.5-4.5 2.4-5 5-.5-2.6-2.4-4.5-5-5 2.6-.5 4.5-2.4 5-5z" fill="none" stroke="#FFFFFF" stroke-width="1.7" stroke-linecap="round" stroke-linejoin="round"/>
  </g>
</svg>
